<svg width="570" height="37" viewBox="0 0 570 37" fill="none" xmlns="http://www.w3.org/2000/svg">
<path d="M14.3895 17.2844C13.5765 17.2844 12.936 17.9969 12.936 18.8669C12.936 19.7339 13.5915 20.4494 14.3895 20.4494C15.201 20.4494 15.8415 19.7339 15.8415 18.8669C15.858 17.9954 15.201 17.2844 14.3895 17.2844ZM19.5915 17.2844C18.7785 17.2844 18.138 17.9969 18.138 18.8669C18.138 19.7339 18.7935 20.4494 19.5915 20.4494C20.403 20.4494 21.0435 19.7339 21.0435 18.8669C21.042 17.9954 20.403 17.2844 19.5915 17.2844Z" fill="black"/>
<path d="M26.517 5.32788H7.42051C7.036 5.32886 6.65545 5.40557 6.30058 5.55363C5.94572 5.70168 5.62349 5.91819 5.35229 6.19077C5.0811 6.46336 4.86625 6.78669 4.72002 7.14231C4.57378 7.49793 4.49902 7.87887 4.50001 8.26338V27.5294C4.50001 29.1539 5.81101 30.4649 7.42051 30.4649H23.58L22.8225 27.8264L24.648 29.5229L26.3715 31.1189L29.4375 33.8279V8.26338C29.4385 7.87887 29.3637 7.49793 29.2175 7.14231C29.0713 6.78669 28.8564 6.46336 28.5852 6.19077C28.314 5.91819 27.9918 5.70168 27.6369 5.55363C27.2821 5.40557 26.9015 5.32886 26.517 5.32788ZM21.015 23.9384C21.015 23.9384 20.502 23.3264 20.076 22.7819C21.942 22.2539 22.6545 21.0869 22.6545 21.0869C22.0695 21.4709 21.5145 21.7439 21.015 21.9299C19.1965 22.6909 17.194 22.8986 15.258 22.5269C14.5427 22.3864 13.8417 22.1805 13.164 21.9119C12.8066 21.7761 12.4592 21.6152 12.1245 21.4304C12.081 21.3989 12.039 21.3869 11.997 21.3584C11.9745 21.3477 11.9546 21.3324 11.9385 21.3134C11.682 21.1724 11.5395 21.0734 11.5395 21.0734C11.5395 21.0734 12.2235 22.2134 14.034 22.7549C13.6065 23.2949 13.0785 23.9384 13.0785 23.9384C9.93001 23.8379 8.73451 21.7724 8.73451 21.7724C8.73451 17.1839 10.7865 13.4654 10.7865 13.4654C12.8385 11.9249 14.79 11.9684 14.79 11.9684L14.9325 12.1394C12.3675 12.8819 11.184 14.0069 11.184 14.0069C11.184 14.0069 11.499 13.8359 12.0255 13.5944C13.5495 12.9254 14.76 12.7394 15.2595 12.6959C15.345 12.6824 15.417 12.6674 15.5025 12.6674C17.9733 12.3344 20.4857 12.804 22.6695 14.0069C22.6695 14.0069 21.543 12.9389 19.1205 12.1979L19.32 11.9699C19.32 11.9699 21.273 11.9264 23.3235 13.4669C23.3235 13.4669 25.3755 17.1854 25.3755 21.7739C25.3755 21.7739 24.165 23.8379 21.015 23.9384Z" fill="black"/>
<path d="M90 5.32788H66C65.6022 5.32788 65.2206 5.48592 64.9393 5.76722C64.658 6.04853 64.5 6.43006 64.5 6.82788V30.8279C64.5 31.2257 64.658 31.6072 64.9393 31.8885C65.2206 32.1698 65.6022 32.3279 66 32.3279H78.9225V21.8879H75.4155V17.8004H78.9225V14.8004C78.9225 11.3129 81.0525 9.41238 84.1725 9.41238C85.221 9.40938 86.271 9.46338 87.315 9.57288V13.2029H85.1625C83.4705 13.2029 83.1405 14.0099 83.1405 15.1904V17.7929H87.186L86.661 21.8804H83.139V32.3279H90C90.3978 32.3279 90.7794 32.1698 91.0607 31.8885C91.342 31.6072 91.5 31.2257 91.5 30.8279V6.82788C91.5 6.43006 91.342 6.04853 91.0607 5.76722C90.7794 5.48592 90.3978 5.32788 90 5.32788Z" fill="black"/>
<path d="M150.99 11.2979C149.681 9.02947 147.797 7.1462 145.528 5.83788C143.229 4.49838 140.719 3.82788 138 3.82788C135.281 3.82788 132.771 4.49838 130.47 5.83788C128.17 7.17738 126.349 8.99838 125.01 11.2979C123.67 13.5974 123 16.1084 123 18.8279C123 21.5474 123.669 24.0584 125.01 26.3579C126.318 28.6266 128.202 30.51 130.471 31.8179C132.771 33.1574 135.281 33.8279 138 33.8279C140.719 33.8279 143.229 33.1574 145.53 31.8179C147.799 30.5096 149.683 28.6263 150.991 26.3579C152.331 24.0584 153 21.5474 153 18.8279C153 16.1084 152.331 13.5974 150.99 11.2979ZM138 6.31788C141 6.31788 143.658 7.27788 145.98 9.19638C144.6 10.9574 142.551 12.4064 139.83 13.5464C138.327 10.8269 136.698 8.55588 134.938 6.73638C135.936 6.46065 136.965 6.3199 138 6.31788ZM128.265 11.0279C129.362 9.63502 130.75 8.49854 132.331 7.69788C134.149 9.49938 135.819 11.7479 137.341 14.4479C134.341 15.3479 131.17 15.7979 127.83 15.7979C126.97 15.7979 126.321 15.7784 125.88 15.7379C126.34 14.0195 127.152 12.4155 128.265 11.0279ZM125.49 18.8279C125.49 18.7469 125.495 18.6479 125.505 18.5279C125.516 18.4079 125.52 18.3089 125.52 18.2279C125.901 18.2489 126.482 18.2579 127.262 18.2579C131.26 18.2579 134.98 17.7074 138.42 16.6079C138.7 17.1674 138.991 17.7974 139.29 18.4979C137.31 18.9374 135.279 20.0069 133.198 21.7079C131.118 23.4089 129.6 25.1984 128.64 27.0779C126.54 24.6974 125.49 21.9479 125.49 18.8279ZM138 31.3379C135.159 31.3379 132.609 30.4574 130.349 28.6994C131.25 26.9189 132.635 25.2164 134.505 23.5979C136.374 21.9779 138.229 20.9684 140.07 20.5679C141.231 23.7764 142.016 27.1086 142.41 30.4979C141.004 31.0472 139.509 31.332 138 31.3379ZM148.62 25.3979C147.638 26.9797 146.316 28.3228 144.75 29.3294C144.39 26.2094 143.7 23.1689 142.681 20.2079C144.08 20.1089 145.329 20.0579 146.431 20.0579C147.63 20.0579 148.961 20.1089 150.42 20.2079C150.224 22.0526 149.608 23.828 148.62 25.3979ZM146.76 17.8979C145.02 17.8979 143.41 17.9684 141.93 18.1079C141.616 17.2871 141.276 16.4766 140.91 15.6779C144.009 14.3189 146.208 12.6689 147.509 10.7279C149.309 12.8489 150.289 15.2684 150.448 17.9879C149.23 17.9279 148 17.8979 146.76 17.8979Z" fill="black"/>
<path d="M197.999 11.8934C196.159 11.8934 194.395 12.6242 193.094 13.925C191.793 15.2257 191.063 16.9899 191.063 18.8294C191.063 20.669 191.793 22.4332 193.094 23.7339C194.395 25.0347 196.159 25.7654 197.999 25.7654C199.838 25.7654 201.602 25.0347 202.903 23.7339C204.204 22.4332 204.935 20.669 204.935 18.8294C204.935 16.9899 204.204 15.2257 202.903 13.925C201.602 12.6242 199.838 11.8934 197.999 11.8934ZM197.999 23.3339C196.803 23.3339 195.657 22.8592 194.812 22.0142C193.967 21.1691 193.493 20.023 193.493 18.8279C193.493 17.6329 193.967 16.4868 194.812 15.6417C195.657 14.7967 196.803 14.3219 197.999 14.3219C199.194 14.3219 200.34 14.7967 201.185 15.6417C202.03 16.4868 202.505 17.6329 202.505 18.8279C202.505 20.023 202.03 21.1691 201.185 22.0142C200.34 22.8592 199.194 23.3339 197.999 23.3339Z" fill="black"/>
<path d="M205.209 13.2554C206.102 13.2554 206.826 12.5315 206.826 11.6384C206.826 10.7454 206.102 10.0214 205.209 10.0214C204.316 10.0214 203.592 10.7454 203.592 11.6384C203.592 12.5315 204.316 13.2554 205.209 13.2554Z" fill="black"/>
<path d="M210.8 9.99445C210.452 9.09772 209.922 8.28337 209.242 7.60354C208.561 6.9237 207.747 6.39336 206.85 6.04645C205.801 5.65248 204.692 5.43946 203.571 5.41645C202.127 5.35345 201.669 5.33545 198.006 5.33545C194.343 5.33545 193.874 5.33545 192.441 5.41645C191.321 5.43828 190.213 5.65135 189.165 6.04645C188.268 6.39295 187.453 6.92315 186.773 7.60304C186.093 8.28293 185.562 9.09749 185.216 9.99445C184.822 11.0439 184.609 12.1527 184.587 13.2734C184.523 14.7164 184.503 15.1739 184.503 18.8385C184.503 22.5014 184.503 22.968 184.587 24.4035C184.61 25.5254 184.821 26.6325 185.216 27.684C185.563 28.5806 186.094 29.3948 186.775 30.0746C187.455 30.7544 188.27 31.2848 189.167 31.6319C190.213 32.0417 191.321 32.27 192.444 32.3069C193.889 32.3699 194.346 32.3895 198.009 32.3895C201.672 32.3895 202.142 32.3895 203.574 32.3069C204.695 32.2842 205.803 32.0717 206.853 31.6785C207.75 31.3307 208.564 30.7999 209.244 30.1199C209.924 29.4399 210.455 28.6256 210.803 27.729C211.197 26.679 211.409 25.572 211.431 24.45C211.496 23.007 211.515 22.5494 211.515 18.885C211.515 15.2204 211.515 14.7555 211.431 13.3199C211.414 12.1834 211.2 11.0583 210.8 9.99445ZM208.973 24.2924C208.963 25.1569 208.805 26.0133 208.506 26.8244C208.281 27.4078 207.936 27.9375 207.494 28.3795C207.051 28.8215 206.521 29.166 205.938 29.3909C205.136 29.6886 204.289 29.8464 203.433 29.8575C202.008 29.9235 201.606 29.94 197.952 29.94C194.295 29.94 193.922 29.94 192.47 29.8575C191.614 29.847 190.768 29.6892 189.966 29.3909C189.381 29.1674 188.849 28.8235 188.404 28.3814C187.96 27.9393 187.614 27.4089 187.388 26.8244C187.093 26.022 186.935 25.1757 186.921 24.3209C186.857 22.896 186.842 22.494 186.842 18.84C186.842 15.1845 186.842 14.8109 186.921 13.3574C186.931 12.4935 187.089 11.6376 187.388 10.8269C187.845 9.64345 188.783 8.71195 189.966 8.25895C190.768 7.96216 191.615 7.80439 192.47 7.79245C193.896 7.72795 194.297 7.70995 197.952 7.70995C201.608 7.70995 201.983 7.70995 203.433 7.79245C204.289 7.80274 205.136 7.96056 205.938 8.25895C206.521 8.48436 207.051 8.82925 207.494 9.27149C207.936 9.71374 208.281 10.2436 208.506 10.8269C208.801 11.6294 208.959 12.4757 208.973 13.3304C209.037 14.7569 209.054 15.1574 209.054 18.813C209.054 22.4669 209.054 22.86 208.989 24.294H208.973V24.2924Z" fill="black"/>
<path d="M251.705 9.42432C252.588 9.42432 253.383 9.50082 254.112 9.65682C254.837 9.81132 255.455 10.0663 255.976 10.4188C256.491 10.7713 256.893 11.2393 257.182 11.8273C257.463 12.4078 257.602 13.1338 257.602 13.9918C257.602 14.9218 257.392 15.6988 256.971 16.3183C256.547 16.9393 255.921 17.4478 255.087 17.8408C256.222 18.1693 257.064 18.7438 257.622 19.5598C258.183 20.3833 258.458 21.3688 258.458 22.5238C258.458 23.4613 258.279 24.2668 257.92 24.9433C257.575 25.6097 257.074 26.183 256.459 26.6143C255.823 27.0574 255.112 27.3826 254.361 27.5743C253.573 27.7811 252.762 27.885 251.948 27.8833H243V9.42432H251.705ZM251.178 16.8823C251.898 16.8823 252.495 16.7113 252.966 16.3648C253.434 16.0228 253.661 15.4588 253.661 14.6863C253.661 14.2573 253.584 13.9033 253.434 13.6258C253.288 13.3588 253.072 13.1369 252.808 12.9838C252.533 12.8205 252.229 12.7111 251.913 12.6613C251.568 12.597 251.218 12.5664 250.867 12.5698H247.065V16.8823H251.178ZM251.405 24.7408C251.805 24.7408 252.186 24.7063 252.545 24.6253C252.906 24.5473 253.227 24.4213 253.5 24.2338C253.773 24.0538 253.998 23.8093 254.16 23.4973C254.323 23.1883 254.403 22.7848 254.403 22.3003C254.403 21.3493 254.135 20.6728 253.604 20.2633C253.071 19.8583 252.357 19.6573 251.483 19.6573H247.065V24.7423H251.405V24.7408ZM264.252 24.6793C264.802 25.2163 265.596 25.4863 266.628 25.4863C267.368 25.4863 268.007 25.2988 268.545 24.9268C269.076 24.5533 269.4 24.1543 269.525 23.7418H272.757C272.238 25.3498 271.451 26.4988 270.374 27.1903C269.31 27.8848 268.016 28.2298 266.504 28.2298C265.451 28.2298 264.503 28.0603 263.653 27.7243C262.839 27.407 262.102 26.9167 261.495 26.2873C260.898 25.6433 260.436 24.8858 260.138 24.0598C259.809 23.1465 259.647 22.1818 259.657 21.2113C259.657 20.2123 259.824 19.2778 260.151 18.4153C260.461 17.5816 260.938 16.8197 261.552 16.1758C262.16 15.5458 262.88 15.0493 263.718 14.6848C264.6 14.314 265.549 14.1291 266.505 14.1418C267.636 14.1418 268.625 14.3608 269.473 14.8018C270.297 15.2228 271.011 15.8298 271.558 16.5748C272.103 17.3143 272.492 18.1618 272.733 19.1113C272.975 20.0593 273.059 21.0493 272.99 22.0858H263.343C263.344 23.1418 263.7 24.1423 264.252 24.6793ZM268.47 17.6578C268.033 17.1748 267.295 16.9138 266.392 16.9138C265.806 16.9138 265.322 17.0113 264.931 17.2123C264.575 17.3924 264.259 17.643 264.001 17.9488C263.776 18.2265 263.608 18.5469 263.51 18.8908C263.423 19.1776 263.367 19.4727 263.343 19.7713H269.316C269.229 18.8353 268.908 18.1438 268.47 17.6578ZM262.593 10.6633H270.076V12.4858H262.593V10.6633Z" fill="black"/>
</svg>
